# This file uses centimeters as units for non-parametric coordinates.

mtllib Board.mtl
g default
v -0.936407 -0.198583 0.045046
v -0.936407 -0.208582 0.035047
v -0.946406 -0.198583 0.035047
v -0.936407 -0.208582 -0.035047
v -0.936407 -0.198583 -0.045046
v -0.946406 -0.198583 -0.035047
v -0.936407 0.208582 0.035047
v -0.936407 0.198583 0.045046
v -0.946406 0.198583 0.035047
v -0.936407 0.198583 -0.045046
v -0.936407 0.208582 -0.035047
v -0.946406 0.198583 -0.035047
v 0.946406 0.198583 0.035047
v 0.936407 0.198583 0.045046
v 0.936407 0.208582 0.035047
v 0.936407 0.198583 -0.045046
v 0.946406 0.198583 -0.035047
v 0.936407 0.208582 -0.035047
v 0.936407 -0.208582 0.035047
v 0.936407 -0.198583 0.045046
v 0.946406 -0.198583 0.035047
v 0.936407 -0.198583 -0.045046
v 0.936407 -0.208582 -0.035047
v 0.946406 -0.198583 -0.035047
vt 0.457222 0.529865
vt 0.457222 0.483258
vt 0.516493 0.483258
vt 0.516493 0.529865
vt 0.516493 0.476610
vt 0.457222 0.476610
vt 0.516493 0.536514
vt 0.457222 0.536514
vt 0.380684 0.435427
vt 0.380684 0.492459
vt 0.334077 0.492459
vt 0.334077 0.435427
vt 0.387332 0.435427
vt 0.387332 0.492459
vt 0.334077 0.493895
vt 0.380684 0.493895
vt 0.327428 0.435427
vt 0.327428 0.492459
vt 0.334077 0.433991
vt 0.380684 0.433991
vt 0.926880 0.818630
vt 0.926880 0.877901
vt 0.869848 0.877901
vt 0.869848 0.818630
vt 0.503716 0.816693
vt 0.560748 0.816693
vt 0.560748 0.875964
vt 0.503716 0.875964
vt 0.585079 0.491542
vt 0.644350 0.491542
vt 0.644350 0.538149
vt 0.585079 0.538149
vt 0.585079 0.484894
vt 0.644350 0.484894
vt 0.585079 0.544798
vt 0.644350 0.544798
vt 0.398005 0.543362
vt 0.398005 0.486329
vt 0.444612 0.486329
vt 0.444612 0.543362
vt 0.391357 0.543362
vt 0.391357 0.486329
vt 0.444612 0.484894
vt 0.398005 0.484894
vt 0.451261 0.543362
vt 0.451261 0.486329
vt 0.444612 0.544797
vt 0.398005 0.544797
vn 0.000000 -1.000000 0.000000
vn 0.000000 -1.000000 0.000000
vn 0.000000 -1.000000 0.000000
vn 0.000000 -1.000000 0.000000
vn -1.000000 0.000000 0.000001
vn -1.000000 0.000000 0.000001
vn -1.000000 0.000000 0.000001
vn -1.000000 0.000000 0.000001
vn -0.000000 0.000000 1.000000
vn -0.000000 0.000000 1.000000
vn -0.000000 0.000000 1.000000
vn -0.000000 0.000000 1.000000
vn 0.000000 0.000000 -1.000000
vn 0.000000 0.000000 -1.000000
vn 0.000000 0.000000 -1.000000
vn 0.000000 0.000000 -1.000000
vn 0.000000 1.000000 -0.000000
vn 0.000000 1.000000 -0.000000
vn 0.000000 1.000000 -0.000000
vn 0.000000 1.000000 -0.000000
vn 1.000000 0.000000 -0.000001
vn 1.000000 0.000000 -0.000001
vn 1.000000 0.000000 -0.000001
vn 1.000000 0.000000 -0.000001
vn -0.000000 -0.707104 0.707110
vn -0.000000 -0.707104 0.707110
vn -0.000000 -0.707104 0.707110
vn -0.000000 -0.707104 0.707110
vn -0.707115 -0.707098 0.000000
vn -0.707115 -0.707098 0.000000
vn -0.707115 -0.707098 0.000000
vn -0.707115 -0.707098 0.000000
vn -0.707111 0.000000 0.707103
vn -0.707111 0.000000 0.707103
vn -0.707111 0.000000 0.707103
vn -0.707111 0.000000 0.707103
vn 0.000000 -0.707108 -0.707106
vn 0.000000 -0.707108 -0.707106
vn 0.000000 -0.707108 -0.707106
vn 0.000000 -0.707108 -0.707106
vn -0.707113 0.000000 -0.707101
vn -0.707113 0.000000 -0.707101
vn -0.707113 0.000000 -0.707101
vn -0.707113 0.000000 -0.707101
vn -0.000000 0.707102 0.707111
vn -0.000000 0.707102 0.707111
vn -0.000000 0.707102 0.707111
vn -0.000000 0.707102 0.707111
vn -0.707116 0.707097 0.000000
vn -0.707116 0.707097 0.000000
vn -0.707116 0.707097 0.000000
vn -0.707116 0.707097 0.000000
vn 0.000000 0.707107 -0.707107
vn 0.000000 0.707107 -0.707107
vn 0.000000 0.707107 -0.707107
vn 0.000000 0.707107 -0.707107
vn 0.707109 0.000000 0.707105
vn 0.707109 0.000000 0.707105
vn 0.707109 0.000000 0.707105
vn 0.707109 0.000000 0.707105
vn 0.707116 0.707097 -0.000000
vn 0.707116 0.707097 -0.000000
vn 0.707116 0.707097 -0.000000
vn 0.707116 0.707097 -0.000000
vn 0.707115 0.000000 -0.707098
vn 0.707115 0.000000 -0.707098
vn 0.707115 0.000000 -0.707098
vn 0.707115 0.000000 -0.707098
vn 0.707115 -0.707098 -0.000000
vn 0.707115 -0.707098 -0.000000
vn 0.707115 -0.707098 -0.000000
vn 0.707115 -0.707098 -0.000000
vn -0.577356 -0.577346 0.577349
vn -0.577356 -0.577346 0.577349
vn -0.577356 -0.577346 0.577349
vn -0.577356 -0.577350 -0.577345
vn -0.577356 -0.577350 -0.577345
vn -0.577356 -0.577350 -0.577345
vn -0.577357 0.577344 0.577350
vn -0.577357 0.577344 0.577350
vn -0.577357 0.577344 0.577350
vn -0.577357 0.577348 -0.577346
vn -0.577357 0.577348 -0.577346
vn -0.577357 0.577348 -0.577346
vn 0.577356 0.577344 0.577352
vn 0.577356 0.577344 0.577352
vn 0.577356 0.577344 0.577352
vn 0.577357 0.577349 -0.577344
vn 0.577357 0.577349 -0.577344
vn 0.577357 0.577349 -0.577344
vn 0.577355 -0.577345 0.577350
vn 0.577355 -0.577345 0.577350
vn 0.577355 -0.577345 0.577350
vn 0.577357 -0.577351 -0.577343
vn 0.577357 -0.577351 -0.577343
vn 0.577357 -0.577351 -0.577343
s off
g Board
usemtl initialShadingGroup
f 19/1/1 2/4/2 4/3/3 23/2/4
f 6/9/5 3/12/6 9/11/7 12/10/8
f 8/21/9 1/24/10 20/23/11 14/22/12
f 22/25/13 5/28/14 10/27/15 16/26/16
f 11/29/17 7/32/18 15/31/19 18/30/20
f 17/37/21 13/40/22 21/39/23 24/38/24
f 2/4/25 19/1/26 20/8/27 1/7/28
f 3/12/29 6/9/30 4/20/31 2/19/32
f 1/17/33 8/18/34 9/11/35 3/12/36
f 5/5/37 22/6/38 23/2/39 4/3/40
f 6/9/41 12/10/42 10/14/43 5/13/44
f 8/35/45 14/36/46 15/31/47 7/32/48
f 7/15/49 11/16/50 12/10/51 9/11/52
f 11/29/53 18/30/54 16/34/55 10/33/56
f 14/45/57 20/46/58 21/39/59 13/40/60
f 13/40/61 17/37/62 18/48/63 15/47/64
f 17/37/65 24/38/66 22/42/67 16/41/68
f 19/43/69 23/44/70 24/38/71 21/39/72
f 1/17/73 3/12/74 2/19/75
f 4/20/76 6/9/77 5/13/78
f 7/15/79 9/11/80 8/18/81
f 10/14/82 12/10/83 11/16/84
f 13/40/85 15/47/86 14/45/87
f 16/41/88 18/48/89 17/37/90
f 19/43/91 21/39/92 20/46/93
f 22/42/94 24/38/95 23/44/96
