# The units used in this file are centimeters.
g default
v -7291.939191 -7291.939191 0.000000
v -4474.599023 -7291.939191 0.000000
v -1822.984937 -7291.939191 0.000000
v 828.629428 -7291.939191 0.000000
v 3480.243654 -7291.939191 0.000000
v 5468.954393 -7291.939191 0.000000
v 7291.939191 -7291.939191 0.000000
v -7291.939191 -1656.725057 0.000000
v -4474.599023 -1656.725057 0.000000
v -1822.984937 -1656.725057 0.000000
v 828.629428 -1656.725057 0.000000
v 3480.243654 -1656.725057 0.000000
v 5468.954393 -1656.725196 0.000000
v 7291.939191 -1656.725196 0.000000
v 3645.969595 -701.400258 0.000000
v 3977.421478 -785.201619 0.000000
v 4308.873360 -825.786786 0.000000
v 4640.325243 -840.397494 0.000000
v 4971.777125 -848.514499 0.000000
v 5303.227895 -855.819888 0.000000
v 5634.679778 -861.501764 0.000000
v 5966.131660 -862.313451 0.000000
v 6297.583543 -861.501834 0.000000
v 6629.035425 -859.878391 0.000000
v 6960.487308 -856.631575 0.000000
v 7291.939191 -855.008132 0.000000
v -331.451883 -7.253435 0.000000
v 0.000000 -37.166553 0.000000
v 331.451883 -59.973257 0.000000
v 662.903765 -76.022423 0.000000
v 994.355091 -89.154038 0.000000
v 1325.806974 -103.131128 0.000000
v 1657.258856 -111.532097 0.000000
v 1988.710739 -119.447276 0.000000
v 2320.162065 -138.875452 0.000000
v 2651.613948 -202.916447 0.000000
v 2983.065830 -347.549627 0.000000
v 3314.517713 -550.077999 0.000000
v -3645.969595 700.563884 0.000000
v -3314.517713 576.785494 0.000000
v -2983.066108 457.400658 0.000000
v -2651.614226 346.290060 0.000000
v -2320.162621 260.820366 0.000000
v -1988.710739 196.786621 0.000000
v -1657.258856 150.726254 0.000000
v -1325.806974 108.705441 0.000000
v -994.355648 65.369148 0.000000
v -662.903765 29.890472 0.000000
v -7291.939191 1458.387838 0.000000
v -6960.487308 1464.587171 0.000000
v -6629.035425 1444.098064 0.000000
v -6297.583543 1405.872018 0.000000
v -5966.132217 1354.033530 0.000000
v -5634.680334 1294.107244 0.000000
v -5303.228452 1223.848922 0.000000
v -4971.776569 1139.125581 0.000000
v -4640.324965 1046.453107 0.000000
v -4308.873082 940.511240 0.000000
v -3977.421478 823.299849 0.000000
vt 0.028409 0.000000
vt 0.193182 0.000000
vt 0.375000 0.000000
vt 0.556818 0.000000
vt 0.738636 0.000000
vt 0.875000 0.000000
vt 0.965909 0.000000
vt 0.028409 0.386400
vt 0.193182 0.386400
vt 0.375000 0.386400
vt 0.556818 0.386400
vt 0.738636 0.386400
vt 0.875000 0.386400
vt 0.968370 0.386400
vt 0.750000 0.451906
vt 0.772727 0.446160
vt 0.795455 0.443377
vt 0.818182 0.442375
vt 0.840909 0.441818
vt 0.863636 0.441317
vt 0.886364 0.440928
vt 0.909091 0.440872
vt 0.931818 0.440928
vt 0.954545 0.441039
vt 0.977273 0.441262
vt 1.000000 0.441373
vt 0.477273 0.499503
vt 0.500000 0.497452
vt 0.522727 0.495888
vt 0.545455 0.494787
vt 0.568182 0.493887
vt 0.590909 0.492928
vt 0.613636 0.492352
vt 0.636364 0.491810
vt 0.659091 0.490478
vt 0.681818 0.486086
vt 0.704545 0.476169
vt 0.727273 0.462282
vt 0.250000 0.548037
vt 0.272727 0.539550
vt 0.295455 0.531363
vt 0.318182 0.523745
vt 0.340909 0.517884
vt 0.363636 0.513493
vt 0.386364 0.510335
vt 0.409091 0.507454
vt 0.431818 0.504482
vt 0.454545 0.502050
vt 0.000000 0.600000
vt 0.022727 0.600425
vt 0.045455 0.599020
vt 0.068182 0.596399
vt 0.090909 0.592845
vt 0.113636 0.588736
vt 0.136364 0.583918
vt 0.159091 0.578109
vt 0.181818 0.571754
vt 0.204545 0.564490
vt 0.227273 0.556453
vn 0.000000 0.000000 1.000000
vn 0.000000 0.000000 1.000000
vn 0.000000 0.000000 1.000000
vn 0.000000 -0.000000 1.000000
vn 0.000000 0.000000 1.000000
vn 0.000000 0.000000 1.000000
vn 0.000000 -0.000000 1.000000
vn 0.000000 0.000000 1.000000
vn 0.000000 0.000000 1.000000
vn -0.000000 -0.000000 1.000000
vn 0.000000 0.000000 1.000000
vn 0.000000 -0.000000 1.000000
vn 0.000000 -0.000000 1.000000
vn -0.000000 -0.000000 1.000000
vn 0.000000 -0.000000 1.000000
vn 0.000000 0.000000 1.000000
vn 0.000000 -0.000000 1.000000
vn 0.000000 0.000000 1.000000
vn 0.000000 0.000000 1.000000
vn 0.000000 0.000000 1.000000
vn -0.000000 -0.000000 1.000000
vn -0.000000 -0.000000 1.000000
vn 0.000000 0.000000 1.000000
vn -0.000000 -0.000000 1.000000
vn -0.000000 -0.000000 1.000000
vn -0.000000 -0.000000 1.000000
vn 0.000000 0.000000 1.000000
vn 0.000000 -0.000000 1.000000
vn 0.000000 -0.000000 1.000000
vn 0.000000 0.000000 1.000000
vn 0.000000 0.000000 1.000000
vn 0.000000 0.000000 1.000000
vn 0.000000 0.000000 1.000000
vn 0.000000 0.000000 1.000000
vn -0.000000 0.000000 1.000000
vn -0.000000 0.000000 1.000000
vn 0.000000 -0.000000 1.000000
vn 0.000000 -0.000000 1.000000
vn -0.000000 -0.000000 1.000000
vn 0.000000 0.000000 1.000000
vn -0.000000 -0.000000 1.000000
vn 0.000000 0.000000 1.000000
vn -0.000000 0.000000 1.000000
vn -0.000000 0.000000 1.000000
vn 0.000000 -0.000000 1.000000
vn 0.000000 -0.000000 1.000000
vn 0.000000 -0.000000 1.000000
vn 0.000000 0.000000 1.000000
vn 0.000000 -0.000000 1.000000
vn 0.000000 -0.000000 1.000000
vn 0.000000 -0.000000 1.000000
vn 0.000000 0.000000 1.000000
vn 0.000000 0.000000 1.000000
vn -0.000000 -0.000000 1.000000
vn 0.000000 0.000000 1.000000
vn 0.000000 0.000000 1.000000
vn 0.000000 0.000000 1.000000
vn 0.000000 0.000000 1.000000
vn 0.000000 0.000000 1.000000
s 1
g pPlane1
usemtl lambert2SG # 
f 2/2/1 9/9/2 8/8/3 1/1/4
f 3/3/5 10/10/6 9/9/2 2/2/1
f 4/4/7 11/11/8 10/10/6 3/3/5
f 5/5/9 12/12/10 11/11/8 4/4/7
f 6/6/11 13/13/12 12/12/10 5/5/9
f 7/7/13 14/14/14 13/13/12 6/6/11
f 12/12/10 16/16/15 15/15/16
f 12/12/10 17/17/17 16/16/15
f 12/12/10 18/18/18 17/17/17
f 13/13/12 19/19/19 18/18/18 12/12/10
f 13/13/12 20/20/20 19/19/19
f 13/13/12 21/21/21 20/20/20
f 13/13/12 22/22/22 21/21/21
f 14/14/14 23/23/23 22/22/22 13/13/12
f 14/14/14 24/24/24 23/23/23
f 14/14/14 25/25/25 24/24/24
f 14/14/14 26/26/26 25/25/25
f 11/11/8 28/28/27 27/27/28
f 11/11/8 29/29/29 28/28/27
f 11/11/8 30/30/30 29/29/29
f 11/11/8 31/31/31 30/30/30
f 11/11/8 32/32/32 31/31/31
f 11/11/8 33/33/33 32/32/32
f 11/11/8 34/34/34 33/33/33
f 12/12/10 35/35/35 34/34/34 11/11/8
f 12/12/10 36/36/36 35/35/35
f 12/12/10 37/37/37 36/36/36
f 12/12/10 38/38/38 37/37/37
f 15/15/16 38/38/38 12/12/10
f 9/9/2 40/40/39 39/39/40
f 10/10/6 41/41/41 40/40/39 9/9/2
f 10/10/6 42/42/42 41/41/41
f 10/10/6 43/43/43 42/42/42
f 10/10/6 44/44/44 43/43/43
f 10/10/6 45/45/45 44/44/44
f 10/10/6 46/46/46 45/45/45
f 10/10/6 47/47/47 46/46/46
f 10/10/6 48/48/48 47/47/47
f 11/11/8 27/27/28 48/48/48 10/10/6
f 8/8/3 50/50/49 49/49/50
f 8/8/3 51/51/51 50/50/49
f 8/8/3 52/52/52 51/51/51
f 8/8/3 53/53/53 52/52/52
f 9/9/2 54/54/54 53/53/53 8/8/3
f 9/9/2 55/55/55 54/54/54
f 9/9/2 56/56/56 55/55/55
f 9/9/2 57/57/57 56/56/56
f 9/9/2 58/58/58 57/57/57
f 9/9/2 59/59/59 58/58/58
f 9/9/2 39/39/40 59/59/59
