# The units used in this file are centimeters.
g default
v -7291.939191 -7291.939191 0.000000
v -4474.599023 -7291.939191 0.000000
v -1822.984937 -7291.939191 0.000000
v 828.629428 -7385.651446 0.000000
v 3480.243654 -8421.572794 0.000000
v 5468.954393 -9322.862642 0.000000
v 7291.939191 -9659.333741 0.000000
v -7291.939191 -1656.725057 0.000000
v -4474.599023 -1656.725057 0.000000
v -1822.984937 -1656.725057 0.000000
v 828.629428 -2013.946044 0.000000
v 3480.243654 -3223.228277 0.000000
v 5468.954393 -3886.480306 0.000000
v 7291.939191 -4024.119330 0.000000
v 3645.969595 -2393.817761 0.000000
v 3977.421478 -2623.834681 0.000000
v 4308.873360 -2796.457734 0.000000
v 4640.325243 -2927.249716 0.000000
v 4971.777125 -3033.674966 0.000000
v 5303.227895 -3119.524320 0.000000
v 5634.679778 -3182.436990 0.000000
v 5966.131660 -3218.033817 0.000000
v 6297.583543 -3228.895898 0.000000
v 6629.035425 -3227.272246 0.000000
v 6960.487308 -3224.025500 0.000000
v 7291.939191 -3222.402126 0.000000
v -331.451883 -62.619953 0.000000
v 0.000000 -154.025644 0.000000
v 331.451883 -259.237623 0.000000
v 662.903765 -376.786898 0.000000
v 994.355091 -508.521548 0.000000
v 1325.806974 -656.006932 0.000000
v 1657.258856 -809.715780 0.000000
v 1988.710739 -972.117645 0.000000
v 2320.162065 -1153.190945 0.000000
v 2651.613948 -1386.097656 0.000000
v 2983.065830 -1706.213742 0.000000
v 3314.517713 -2082.271951 0.000000
v -3645.969595 811.726151 0.000000
v -3314.517713 661.586513 0.000000
v -2983.066108 511.437904 0.000000
v -2651.614226 375.261056 0.000000
v -2320.162621 276.646239 0.000000
v -1988.710739 202.977487 0.000000
v -1657.258856 151.400718 0.000000
v -1325.806974 108.705458 0.000000
v -994.355648 65.369209 0.000000
v -662.903765 13.689955 0.000000
v -7291.939191 1458.387838 0.000000
v -6960.487308 1464.587171 0.000000
v -6629.035425 1444.098064 0.000000
v -5634.680334 1310.075886 0.000000
v -4308.873082 1062.288786 0.000000
v -3977.421478 948.048757 0.000000
vt 0.028409 0.000000
vt 0.193182 0.000000
vt 0.375000 0.000000
vt 0.552453 -0.006426
vt 0.726423 -0.077458
vt 0.852451 -0.139258
vt 0.965912 -0.162330
vt 0.028409 0.386400
vt 0.193182 0.386400
vt 0.375000 0.386400
vt 0.555784 0.361906
vt 0.734300 0.278987
vt 0.863423 0.233508
vt 0.977163 0.224071
vt 0.747964 0.335859
vt 0.769676 0.320087
vt 0.791050 0.308250
vt 0.812497 0.299282
vt 0.834047 0.291984
vt 0.855498 0.286098
vt 0.876432 0.281784
vt 0.896921 0.279343
vt 0.917370 0.278598
vt 0.937904 0.278710
vt 0.958280 0.278932
vt 0.978366 0.279043
vt 0.477267 0.495706
vt 0.499989 0.489439
vt 0.522707 0.482224
vt 0.545423 0.474164
vt 0.568135 0.465131
vt 0.590832 0.455018
vt 0.613483 0.444479
vt 0.636062 0.433343
vt 0.658591 0.420927
vt 0.681051 0.404957
vt 0.703441 0.383007
vt 0.725771 0.357221
vt 0.250000 0.555659
vt 0.272727 0.545364
vt 0.295455 0.535069
vt 0.318182 0.525731
vt 0.340909 0.518969
vt 0.363636 0.513918
vt 0.386364 0.510381
vt 0.409091 0.507454
vt 0.431818 0.504482
vt 0.454545 0.500939
vt 0.000000 0.600000
vt 0.022727 0.600425
vt 0.045455 0.599020
vt 0.113606 0.589830
vt 0.204545 0.572840
vt 0.227273 0.565007
vn 0.000000 0.000000 1.000000
vn 0.000000 0.000000 1.000000
vn 0.000000 -0.000000 1.000000
vn 0.000000 -0.000000 1.000000
vn -0.000000 -0.000000 1.000000
vn 0.000000 0.000000 1.000000
vn 0.000000 -0.000000 1.000000
vn 0.000000 0.000000 1.000000
vn 0.000000 0.000000 1.000000
vn 0.000000 0.000000 1.000000
vn -0.000000 0.000000 1.000000
vn 0.000000 -0.000000 1.000000
vn 0.000000 0.000000 1.000000
vn -0.000000 0.000000 1.000000
vn 0.000000 -0.000000 1.000000
vn -0.000000 0.000000 1.000000
vn 0.000000 0.000000 1.000000
vn 0.000000 0.000000 1.000000
vn 0.000000 0.000000 1.000000
vn 0.000000 0.000000 1.000000
vn 0.000000 -0.000000 1.000000
vn 0.000000 -0.000000 1.000000
vn -0.000000 0.000000 1.000000
vn -0.000000 0.000000 1.000000
vn 0.000000 -0.000000 1.000000
vn 0.000000 0.000000 1.000000
vn 0.000000 -0.000000 1.000000
vn 0.000000 -0.000000 1.000000
vn -0.000000 0.000000 1.000000
vn -0.000000 -0.000000 1.000000
vn 0.000000 0.000000 1.000000
vn 0.000000 0.000000 1.000000
vn -0.000000 -0.000000 1.000000
vn 0.000000 -0.000000 1.000000
vn -0.000000 -0.000000 1.000000
vn 0.000000 0.000000 1.000000
vn 0.000000 0.000000 1.000000
vn 0.000000 0.000000 1.000000
vn -0.000000 -0.000000 1.000000
vn -0.000000 -0.000000 1.000000
vn 0.000000 0.000000 1.000000
vn 0.000000 0.000000 1.000000
vn 0.000000 0.000000 1.000000
vn 0.000000 -0.000000 1.000000
vn 0.000000 -0.000000 1.000000
vn 0.000000 0.000000 1.000000
vn 0.000000 0.000000 1.000000
vn 0.000000 -0.000000 1.000000
vn 0.000000 -0.000000 1.000000
vn 0.000000 -0.000000 1.000000
vn 0.000000 -0.000000 1.000000
vn -0.000000 -0.000000 1.000000
vn 0.000000 0.000000 1.000000
vn 0.000000 0.000000 1.000000
s 1
g pPlane2
usemtl lambert2SG # 
f 2/2/1 9/9/2 8/8/3 1/1/4
f 3/3/5 10/10/6 9/9/2 2/2/1
f 4/4/7 11/11/8 10/10/6 3/3/5
f 5/5/9 12/12/10 11/11/8 4/4/7
f 6/6/11 13/13/12 12/12/10 5/5/9
f 7/7/13 14/14/14 13/13/12 6/6/11
f 12/12/10 16/16/15 15/15/16
f 12/12/10 17/17/17 16/16/15
f 12/12/10 18/18/18 17/17/17
f 13/13/12 19/19/19 18/18/18 12/12/10
f 13/13/12 20/20/20 19/19/19
f 13/13/12 21/21/21 20/20/20
f 13/13/12 22/22/22 21/21/21
f 14/14/14 23/23/23 22/22/22 13/13/12
f 14/14/14 24/24/24 23/23/23
f 14/14/14 25/25/25 24/24/24
f 14/14/14 26/26/26 25/25/25
f 11/11/8 28/28/27 27/27/28
f 11/11/8 29/29/29 28/28/27
f 11/11/8 30/30/30 29/29/29
f 11/11/8 31/31/31 30/30/30
f 11/11/8 32/32/32 31/31/31
f 11/11/8 33/33/33 32/32/32
f 11/11/8 34/34/34 33/33/33
f 12/12/10 35/35/35 34/34/34 11/11/8
f 12/12/10 36/36/36 35/35/35
f 12/12/10 37/37/37 36/36/36
f 12/12/10 38/38/38 37/37/37
f 15/15/16 38/38/38 12/12/10
f 9/9/2 40/40/39 39/39/40
f 10/10/6 41/41/41 40/40/39 9/9/2
f 10/10/6 42/42/42 41/41/41
f 10/10/6 43/43/43 42/42/42
f 10/10/6 44/44/44 43/43/43
f 10/10/6 45/45/45 44/44/44
f 10/10/6 46/46/46 45/45/45
f 10/10/6 47/47/47 46/46/46
f 10/10/6 48/48/48 47/47/47
f 11/11/8 27/27/28 48/48/48 10/10/6
f 8/8/3 50/50/49 49/49/50
f 8/8/3 51/51/51 50/50/49
f 8/8/3 52/52/52 51/51/51
f 9/9/2 52/52/52 8/8/3
f 9/9/2 53/53/53 52/52/52
f 9/9/2 54/54/54 53/53/53
f 9/9/2 39/39/40 54/54/54
