# The units used in this file are centimeters.
g default
v -7291.939191 -4978.543777 0.000000
v -4474.599023 -7394.863728 0.000000
v -1822.984937 -10028.648386 0.000000
v 3480.243654 -14507.979281 0.000000
v 5468.954393 -14938.991013 0.000000
v 7291.939191 -14938.991013 0.000000
v -7291.939191 -1656.725057 0.000000
v -4474.599023 -1746.672483 0.000000
v -1822.984937 -2519.192472 0.000000
v 3677.351938 -6280.686107 0.000000
v 5468.954393 -7219.611735 0.000000
v 7291.939191 -7219.612847 0.000000
v 4654.861054 -6273.073833 0.000000
v 4971.777125 -6372.537993 0.000000
v 5303.227895 -6418.707330 0.000000
v 5800.405719 -6424.794702 0.000000
v 7291.939191 -6417.895644 0.000000
v 4119.159825 -6057.088966 0.000000
v -3480.243654 483.333740 0.000000
v -991.766067 -1674.667282 0.000000
v -7291.939191 1458.387838 0.000000
v -6794.761367 1454.342618 0.000000
v -6297.583543 1405.872018 0.000000
v -5966.132217 1354.033530 0.000000
v -5634.680334 1294.107244 0.000000
v -5137.502510 1181.487251 0.000000
v -4474.599023 993.482208 0.000000
v -3977.421478 797.437490 0.000000
vt 0.028565 0.158627
vt 0.200117 -0.007057
vt 0.371627 -0.187653
vt 0.719695 -0.494796
vt 0.844872 -0.524350
vt 0.957878 -0.524350
vt 0.028409 0.386400
vt 0.196629 0.380233
vt 0.374059 0.327262
vt 0.742181 0.069341
vt 0.857163 0.004960
vt 0.970724 0.004960
vt 0.801617 0.069863
vt 0.822541 0.063043
vt 0.846949 0.059877
vt 0.878179 0.059460
vt 0.970862 0.059933
vt 0.773988 0.084673
vt 0.261334 0.533142
vt 0.430450 0.385170
vt 0.000000 0.600000
vt 0.034091 0.599723
vt 0.068182 0.596399
vt 0.090909 0.592845
vt 0.113636 0.588736
vt 0.147727 0.581013
vt 0.193182 0.568122
vt 0.227273 0.554679
vn 0.000000 0.000000 1.000000
vn 0.000000 -0.000000 1.000000
vn -0.000000 0.000000 1.000000
vn 0.000000 0.000000 1.000000
vn 0.000000 0.000000 1.000000
vn 0.000000 0.000000 1.000000
vn 0.000000 0.000000 1.000000
vn -0.000000 -0.000000 1.000000
vn 0.000000 -0.000000 1.000000
vn -0.000000 -0.000000 1.000000
vn 0.000000 -0.000000 1.000000
vn 0.000000 -0.000000 1.000000
vn 0.000000 -0.000000 1.000000
vn -0.000000 0.000000 1.000000
vn 0.000000 -0.000000 1.000000
vn -0.000000 -0.000000 1.000000
vn -0.000000 0.000000 1.000000
vn 0.000000 -0.000000 1.000000
vn -0.000000 0.000000 1.000000
vn -0.000000 -0.000000 1.000000
vn 0.000000 -0.000000 1.000000
vn 0.000000 -0.000000 1.000000
vn -0.000000 0.000000 1.000000
vn -0.000000 0.000000 1.000000
vn -0.000000 -0.000000 1.000000
vn 0.000000 -0.000000 1.000000
vn 0.000000 0.000000 1.000000
vn -0.000000 -0.000000 1.000000
s 1
g pPlane3
usemtl lambert2SG # 
f 2/2/1 8/8/2 7/7/3 1/1/4
f 3/3/5 9/9/6 8/8/2 2/2/1
f 9/9/6 3/3/5 4/4/7 10/10/8
f 5/5/9 11/11/10 10/10/8 4/4/7
f 6/6/11 12/12/12 11/11/10 5/5/9
f 10/10/8 13/13/13 18/18/14
f 11/11/10 14/14/15 13/13/13 10/10/8
f 11/11/10 15/15/16 14/14/15
f 11/11/10 16/16/17 15/15/16
f 17/17/18 16/16/17 11/11/10 12/12/12
f 9/9/6 20/20/19 19/19/20 8/8/2
f 18/18/14 20/20/19 9/9/6 10/10/8
f 7/7/3 22/22/21 21/21/22
f 7/7/3 23/23/23 22/22/21
f 7/7/3 24/24/24 23/23/23
f 8/8/2 25/25/25 24/24/24 7/7/3
f 8/8/2 26/26/26 25/25/25
f 8/8/2 27/27/27 26/26/26
f 8/8/2 28/28/28 27/27/27
f 8/8/2 19/19/20 28/28/28
