# This file uses centimeters as units for non-parametric coordinates.

mtllib BGmountain14.mtl
g default
v -1052.552979 916.533508 254.589508
v -1602.335205 -0.000000 -986.445374
v 880.531250 -0.000000 -213.478821
v 880.531250 0.000000 312.611877
v -1052.552979 916.533508 326.246277
v -1602.335205 0.000000 1085.578369
v -694.401611 1132.692627 -221.065308
v -1373.846680 -0.000000 -1754.791016
v 1694.589111 -0.000000 -799.524841
v 1694.589111 0.000000 -149.358704
v -694.401611 1132.692627 -132.508789
v -1373.846680 0.000000 805.907410
v -135.572556 816.965637 317.138123
v -625.629089 -0.000000 -789.076599
v 1587.510498 -0.000000 -100.081482
v 1587.510498 0.000000 368.857239
v -135.572556 816.965637 381.010437
v -625.629089 0.000000 1057.852295
v -130.046539 702.043030 541.296387
v -551.166748 -0.000000 -409.306946
v 1350.650391 -0.000000 182.767166
v 1350.650391 0.000000 585.740173
v -130.046539 702.043030 596.183777
v -551.166748 0.000000 1177.814209
v -611.559570 851.888855 676.723022
v -1122.564819 -0.000000 -476.779602
v 1185.180908 -0.000000 241.668335
v 1185.180908 0.000000 730.653015
v -611.559570 851.888855 743.325745
v -1122.564819 0.000000 1449.100830
v -858.337769 923.877869 975.293396
v -1412.525391 -0.000000 -275.686096
v 1090.236572 -0.000000 503.474365
v 1090.236572 0.000000 1033.780640
v -858.337769 923.877869 1047.524292
v -1412.525391 0.000000 1812.941040
v -1358.331055 984.477844 1204.395264
v -1819.585449 -0.000000 142.596069
v 314.297241 -0.000000 1063.842896
v 255.971771 0.000000 1478.221802
v -1366.275391 984.477844 1260.836182
v -1816.848633 0.000000 2035.426270
v -29.877136 636.091003 1176.261597
v -411.436035 -0.000000 314.960815
v 1311.718506 -0.000000 851.413696
v 1311.718506 0.000000 1216.530151
v -29.877136 636.091003 1225.992798
v -411.436035 0.000000 1752.983032
vt 0.375000 0.000000
vt 0.625000 0.000000
vt 0.375000 0.250000
vt 0.375000 0.500000
vt 0.375000 0.750000
vt 0.625000 0.750000
vt 0.375000 1.000000
vt 0.625000 1.000000
vt 0.125000 0.000000
vt 0.125000 0.250000
vt 0.375000 0.000000
vt 0.375000 0.250000
vt 0.625000 0.000000
vt 0.375000 0.500000
vt 0.375000 0.750000
vt 0.625000 0.750000
vt 0.375000 1.000000
vt 0.625000 1.000000
vt 0.125000 0.000000
vt 0.125000 0.250000
vt 0.375000 0.000000
vt 0.375000 0.250000
vt 0.625000 0.000000
vt 0.375000 0.500000
vt 0.375000 0.750000
vt 0.625000 0.750000
vt 0.375000 1.000000
vt 0.625000 1.000000
vt 0.125000 0.000000
vt 0.125000 0.250000
vt 0.375000 0.000000
vt 0.375000 0.250000
vt 0.625000 0.000000
vt 0.375000 0.500000
vt 0.375000 0.750000
vt 0.625000 0.750000
vt 0.375000 1.000000
vt 0.625000 1.000000
vt 0.125000 0.000000
vt 0.125000 0.250000
vt 0.375000 0.000000
vt 0.375000 0.250000
vt 0.625000 0.000000
vt 0.375000 0.500000
vt 0.375000 0.750000
vt 0.625000 0.750000
vt 0.375000 1.000000
vt 0.625000 1.000000
vt 0.125000 0.000000
vt 0.125000 0.250000
vt 0.375000 0.000000
vt 0.375000 0.250000
vt 0.625000 0.000000
vt 0.375000 0.500000
vt 0.375000 0.750000
vt 0.625000 0.750000
vt 0.375000 1.000000
vt 0.625000 1.000000
vt 0.125000 0.000000
vt 0.125000 0.250000
vt 0.375000 0.000000
vt 0.375000 0.250000
vt 0.625000 0.000000
vt 0.375000 0.500000
vt 0.375000 0.750000
vt 0.625000 0.750000
vt 0.375000 1.000000
vt 0.625000 1.000000
vt 0.125000 0.000000
vt 0.125000 0.250000
vt 0.375000 0.000000
vt 0.375000 0.250000
vt 0.625000 0.000000
vt 0.375000 0.500000
vt 0.375000 0.750000
vt 0.625000 0.750000
vt 0.375000 1.000000
vt 0.625000 1.000000
vt 0.125000 0.000000
vt 0.125000 0.250000
vn 0.198510 0.744320 -0.637638
vn 0.198510 0.744320 -0.637638
vn 0.198510 0.744320 -0.637638
vn 0.253454 0.522455 0.814126
vn 0.253454 0.522455 0.814126
vn 0.253454 0.522455 0.814126
vn -0.857550 0.514401 0.000000
vn -0.857550 0.514401 0.000000
vn -0.857550 0.514401 0.000000
vn -0.857550 0.514401 0.000000
vn 0.428415 0.903582 0.000000
vn 0.428415 0.903582 0.000000
vn 0.428415 0.903582 0.000000
vn 0.428415 0.903582 0.000000
vn 0.198510 0.744320 -0.637638
vn 0.198510 0.744320 -0.637638
vn 0.198510 0.744320 -0.637638
vn 0.253454 0.522455 0.814126
vn 0.253454 0.522455 0.814126
vn 0.253454 0.522455 0.814126
vn -0.857550 0.514401 0.000000
vn -0.857550 0.514401 0.000000
vn -0.857550 0.514401 0.000000
vn -0.857550 0.514401 0.000000
vn 0.428415 0.903582 0.000000
vn 0.428415 0.903582 0.000000
vn 0.428415 0.903582 0.000000
vn 0.428415 0.903582 0.000000
vn 0.198510 0.744320 -0.637638
vn 0.198510 0.744320 -0.637638
vn 0.198510 0.744320 -0.637638
vn 0.253454 0.522455 0.814126
vn 0.253454 0.522455 0.814126
vn 0.253454 0.522455 0.814126
vn -0.857550 0.514401 0.000000
vn -0.857550 0.514401 0.000000
vn -0.857550 0.514401 0.000000
vn -0.857550 0.514401 0.000000
vn 0.428415 0.903582 0.000000
vn 0.428415 0.903582 0.000000
vn 0.428415 0.903582 0.000000
vn 0.428415 0.903582 0.000000
vn 0.198510 0.744320 -0.637638
vn 0.198510 0.744320 -0.637638
vn 0.198510 0.744320 -0.637638
vn 0.253454 0.522455 0.814126
vn 0.253454 0.522455 0.814126
vn 0.253454 0.522455 0.814126
vn -0.857550 0.514401 0.000000
vn -0.857550 0.514401 0.000000
vn -0.857550 0.514401 0.000000
vn -0.857550 0.514401 0.000000
vn 0.428415 0.903582 0.000000
vn 0.428415 0.903582 0.000000
vn 0.428415 0.903582 0.000000
vn 0.428415 0.903582 0.000000
vn 0.198510 0.744320 -0.637638
vn 0.198510 0.744320 -0.637638
vn 0.198510 0.744320 -0.637638
vn 0.253454 0.522455 0.814126
vn 0.253454 0.522455 0.814126
vn 0.253454 0.522455 0.814126
vn -0.857550 0.514401 0.000000
vn -0.857550 0.514401 0.000000
vn -0.857550 0.514401 0.000000
vn -0.857550 0.514401 0.000000
vn 0.428415 0.903582 0.000000
vn 0.428415 0.903582 0.000000
vn 0.428415 0.903582 0.000000
vn 0.428415 0.903582 0.000000
vn 0.198510 0.744320 -0.637638
vn 0.198510 0.744320 -0.637638
vn 0.198510 0.744320 -0.637638
vn 0.253454 0.522455 0.814126
vn 0.253454 0.522455 0.814126
vn 0.253454 0.522455 0.814126
vn -0.857550 0.514401 0.000000
vn -0.857550 0.514401 0.000000
vn -0.857550 0.514401 0.000000
vn -0.857550 0.514401 0.000000
vn 0.428415 0.903582 0.000000
vn 0.428415 0.903582 0.000000
vn 0.428415 0.903582 0.000000
vn 0.428415 0.903582 0.000000
vn 0.308829 0.626828 -0.715340
vn 0.308829 0.626828 -0.715340
vn 0.308829 0.626828 -0.715340
vn 0.218552 0.539661 0.813020
vn 0.218552 0.539661 0.813020
vn 0.218552 0.539661 0.813020
vn -0.907281 0.420518 -0.002424
vn -0.907281 0.420518 -0.002424
vn -0.907281 0.420518 -0.002424
vn -0.907281 0.420518 -0.002424
vn 0.510408 0.856926 0.071842
vn 0.510408 0.856926 0.071842
vn 0.510408 0.856926 0.071842
vn 0.510408 0.856926 0.071842
vn 0.198510 0.744320 -0.637638
vn 0.198510 0.744320 -0.637638
vn 0.198510 0.744320 -0.637638
vn 0.253454 0.522455 0.814126
vn 0.253454 0.522455 0.814126
vn 0.253454 0.522455 0.814126
vn -0.857550 0.514401 0.000000
vn -0.857550 0.514401 0.000000
vn -0.857550 0.514401 0.000000
vn -0.857550 0.514401 0.000000
vn 0.428416 0.903582 0.000000
vn 0.428416 0.903582 0.000000
vn 0.428416 0.903582 0.000000
vn 0.428416 0.903582 0.000000
s off
g polySurface1
usemtl initialShadingGroup
f 1/1/1 3/3/2 2/2/3
f 4/4/4 5/5/5 6/6/6
f 5/5/7 1/7/8 2/8/9 6/6/10
f 5/9/11 4/10/12 3/3/13 1/1/14
f 7/11/15 9/12/16 8/13/17
f 10/14/18 11/15/19 12/16/20
f 11/15/21 7/17/22 8/18/23 12/16/24
f 11/19/25 10/20/26 9/12/27 7/11/28
f 13/21/29 15/22/30 14/23/31
f 16/24/32 17/25/33 18/26/34
f 17/25/35 13/27/36 14/28/37 18/26/38
f 17/29/39 16/30/40 15/22/41 13/21/42
f 19/31/43 21/32/44 20/33/45
f 22/34/46 23/35/47 24/36/48
f 23/35/49 19/37/50 20/38/51 24/36/52
f 23/39/53 22/40/54 21/32/55 19/31/56
f 25/41/57 27/42/58 26/43/59
f 28/44/60 29/45/61 30/46/62
f 29/45/63 25/47/64 26/48/65 30/46/66
f 29/49/67 28/50/68 27/42/69 25/41/70
f 31/51/71 33/52/72 32/53/73
f 34/54/74 35/55/75 36/56/76
f 35/55/77 31/57/78 32/58/79 36/56/80
f 35/59/81 34/60/82 33/52/83 31/51/84
f 37/61/85 39/62/86 38/63/87
f 40/64/88 41/65/89 42/66/90
f 41/65/91 37/67/92 38/68/93 42/66/94
f 41/69/95 40/70/96 39/62/97 37/61/98
f 43/71/99 45/72/100 44/73/101
f 46/74/102 47/75/103 48/76/104
f 47/75/105 43/77/106 44/78/107 48/76/108
f 47/79/109 46/80/110 45/72/111 43/71/112
