# This file uses centimeters as units for non-parametric coordinates.

mtllib BGmountain13_2.mtl
g default
v -1847.738281 -0.513835 -3108.479980
v -1956.043579 -0.462431 -3225.256348
v -1414.688477 3179.397949 -1205.008423
v -1509.780029 3226.963135 -1239.853638
v -387.732635 -0.462431 3752.072754
v -4660.552734 -0.462431 1047.563599
v -1082.051636 2169.867676 2197.637451
v -2686.325439 3226.963135 618.955322
v -1816.744019 3172.136963 -541.552856
v -1648.685181 3061.878174 -378.040588
v -2205.636719 3061.878418 501.880066
v -1739.839722 2751.079346 975.321411
v -1833.483032 2751.078857 1123.267212
v -963.284363 2169.867676 2009.998535
v -249.590179 -0.462431 3533.822998
v -641.990906 4993.872070 -782.792786
v -376.460693 4994.159668 -617.615540
v -1498.839355 3159.590088 893.098877
v -1516.991821 3450.300293 1014.287109
v 1415.135986 3414.153809 -1209.927490
v 1096.299194 4164.160645 -1091.660034
v -471.476440 4174.979004 -2033.805054
v 303.287933 3425.239990 -1874.187256
v -1081.740601 -0.437864 -4494.495117
v -215.846222 -0.437864 -3974.990967
v 837.149902 3296.998535 1811.845581
v 679.796326 3295.896729 1712.075073
v 880.825256 4322.349609 462.516052
v 1037.521973 4322.176758 565.267151
v 3121.015381 0.000000 51.387554
v 3707.673096 0.000000 571.761902
v 1388.414795 0.000000 4286.421387
v 3676.617676 0.000000 -826.402466
v 3117.645752 0.000000 -1180.207275
v -275.401367 4473.970215 -1243.307373
v 492.641479 4497.288086 -743.713501
v 1075.426270 3784.722168 -925.225037
v 876.925781 3962.100830 -810.848450
v 73.785858 5874.523438 328.269257
v -310.613678 5874.523438 84.961090
v -67.305504 5874.523438 -299.438507
v 317.094025 5874.523438 -56.130352
v 1161.166016 3970.755615 -625.917603
v 1848.957153 3012.878174 -746.075439
v 922.693665 0.000000 4048.500977
v 628.109192 0.000000 3862.042236
v 247.151367 3159.632324 1998.210327
v 211.766968 3556.028809 1748.010254
v -1210.858154 3556.098633 847.510071
v 1138.733887 0.000000 3707.182373
v 4044.517578 -0.023947 -1845.106323
v -68.986465 -0.437864 -4359.787109
v 425.752991 3344.888428 -2328.262207
v 1956.493408 3334.070068 -1275.396118
v 579.061584 0.000000 4468.341309
v 139.026413 3450.300293 2062.402832
vt 1.755985 0.391377
vt 1.427132 -0.168044
vt 1.779850 0.391368
vt 1.417625 -0.159800
vt 1.602519 0.228406
vt 1.391226 -0.099548
vt 1.629736 0.201189
vt 1.516281 0.018155
vt 1.692507 0.486014
vt 1.537741 -0.003305
vt 1.660849 0.517672
vt 1.476966 -0.101075
vt 1.604600 -0.228709
vt 1.582395 -0.262749
vt 1.660849 -0.369172
vt 1.675606 -0.359664
vt -0.229601 0.962470
vt -0.207007 0.985802
vt -0.311095 1.166143
vt -0.288277 1.188997
vt 0.337946 1.081491
vt 0.119025 1.310807
vt 0.196811 1.084601
vt 0.083129 1.195496
vt 0.132867 1.005102
vt 0.094840 1.043727
vt -0.433237 1.026701
vt -0.395320 1.057446
vt -0.443093 1.092470
vt -0.327781 1.150211
vt -0.501508 0.962470
vt -0.573952 1.073986
vt -0.629709 1.018228
vt -0.518194 1.018228
vt -0.573952 0.962470
vt 0.486312 -0.223086
vt -0.125131 0.741042
vt 0.155469 0.242368
vt 0.088040 0.237887
vt 0.393310 -0.379551
vt 0.930284 -0.369172
vt 0.981941 0.649065
vt 0.932058 0.202109
vt 0.979793 -0.369172
vt 0.850564 0.380025
vt 0.909240 0.202300
vt 1.022523 -0.369172
vt 0.926183 0.649065
vt 1.016100 0.178490
vt 1.012574 0.247198
vt 1.218926 0.247210
vt 1.037699 0.649065
vt 1.374017 0.161547
vt 1.269360 0.178483
vt 1.313241 0.107676
vt 0.745763 -0.369172
vt 0.620999 0.649065
vt 0.636626 -0.100132
vt 0.748324 0.649065
vt 0.613293 -0.100102
vt 0.829404 0.649065
vt 0.510698 0.649065
vt 0.410099 0.077593
vt -0.029335 0.649065
vt 0.411222 1.278864
vt 0.449138 1.267067
vt 0.452261 1.320942
vt 0.611447 1.241340
vt 0.517409 1.231833
vt 0.392603 1.005102
vt 0.354632 1.077236
vt 1.364493 1.248992
vt 0.925059 0.677520
vt 1.032506 0.677520
vt 0.389547 1.343520
vt 0.389466 1.153984
vt 0.987590 0.919921
vt 0.765652 0.869158
vt 0.987590 0.679725
vt 0.866394 0.686124
vt 0.937201 0.659920
vt 0.866394 0.664664
vt -0.139919 1.223522
vt -0.190321 1.199270
vt 0.066443 1.017169
vt 0.049875 0.959059
vt 0.201998 0.400542
vt 0.195252 0.350160
vt 0.245655 0.331833
vt -0.228346 0.948203
vt -0.127678 0.948203
vt -0.646396 1.031197
vt -0.704506 1.012859
vt -0.696830 0.962470
vt -0.312493 0.345747
vt -0.615362 0.925596
vt -0.687496 0.939523
vt -0.253002 0.345747
vt -0.506208 1.048523
vt -0.506208 0.428742
vt -0.130023 0.990192
vt 0.053204 0.778899
vt -0.235485 -0.089734
vt 0.323927 -0.089734
vt -0.235485 0.530046
vt 0.323927 0.179890
vt 0.874594 1.059520
vt 0.666759 1.375283
vt 0.852389 1.040409
vt 0.628134 1.375333
vt 1.206961 0.656104
vt 1.086193 0.656104
vt 0.767633 -0.067624
vt 0.711189 0.062328
vt 0.548711 -0.065749
vt 0.556592 0.064250
vt 1.223647 0.323703
vt 1.316858 0.324962
vt 1.431481 0.639466
vt 1.507870 0.497527
vt 1.315979 -0.226215
vt 1.498203 -0.226202
vt 1.400938 0.086459
vt 1.287257 0.082417
vt 1.233409 -0.156300
vt 1.177651 -0.156300
vt 1.298968 -0.003706
vt 1.284003 0.175182
vt 1.241925 0.173682
vt 1.236100 0.339711
vt 1.321527 0.284039
vt 0.768889 -0.156300
vt 0.896523 -0.156300
vt 1.105207 0.331218
vt 1.120778 0.178624
vt 1.160965 0.331218
vt 0.882370 0.356510
vt 0.882289 1.014189
vt 0.226698 0.766255
vt 0.228818 1.033384
vn 0.484943 0.399610 -0.777909
vn 0.484943 0.399610 -0.777909
vn 0.484943 0.399610 -0.777909
vn 0.699013 0.302081 -0.648173
vn 0.699013 0.302081 -0.648173
vn 0.699013 0.302081 -0.648173
vn -0.490597 0.398186 0.775089
vn -0.490597 0.398186 0.775089
vn -0.490597 0.398186 0.775089
vn -0.492617 0.403717 0.770935
vn -0.492617 0.403717 0.770935
vn -0.492617 0.403717 0.770935
vn 0.365968 0.901338 0.231639
vn 0.365968 0.901338 0.231639
vn 0.365968 0.901338 0.231639
vn 0.365970 0.901338 0.231637
vn 0.365970 0.901338 0.231637
vn 0.365970 0.901338 0.231637
vn 0.365971 0.901337 0.231640
vn 0.365971 0.901337 0.231640
vn 0.365971 0.901337 0.231640
vn 0.365969 0.901337 0.231643
vn 0.365969 0.901337 0.231643
vn 0.365969 0.901337 0.231643
vn 0.365968 0.901338 0.231641
vn 0.365968 0.901338 0.231641
vn 0.365968 0.901338 0.231641
vn 0.365968 0.901338 0.231641
vn 0.365968 0.901338 0.231641
vn 0.365968 0.901338 0.231641
vn 0.365966 0.901338 0.231645
vn 0.365966 0.901338 0.231645
vn 0.365966 0.901338 0.231645
vn 0.365968 0.901338 0.231641
vn 0.365968 0.901338 0.231641
vn 0.365968 0.901338 0.231641
vn -0.771737 0.407203 -0.488476
vn -0.771737 0.407203 -0.488476
vn -0.771737 0.407203 -0.488476
vn -0.771736 0.407203 -0.488476
vn -0.771736 0.407203 -0.488476
vn -0.771736 0.407203 -0.488476
vn 0.707363 0.546969 0.447730
vn 0.707363 0.546969 0.447730
vn 0.707363 0.546969 0.447730
vn 0.707364 0.546969 0.447730
vn 0.707364 0.546969 0.447730
vn 0.707364 0.546969 0.447730
vn -0.481417 0.412830 0.773181
vn -0.481417 0.412830 0.773181
vn -0.481417 0.412830 0.773181
vn -0.481417 0.412831 0.773181
vn -0.481417 0.412831 0.773181
vn -0.481417 0.412831 0.773181
vn -0.786990 0.364024 -0.498130
vn -0.786990 0.364024 -0.498130
vn -0.786990 0.364024 -0.498130
vn -0.724250 0.226302 -0.651344
vn -0.724250 0.226302 -0.651344
vn -0.724250 0.226302 -0.651344
vn 0.472603 0.395151 -0.787720
vn 0.472603 0.395151 -0.787720
vn 0.472603 0.395151 -0.787720
vn 0.527990 0.384390 -0.757279
vn 0.527990 0.384390 -0.757279
vn 0.527990 0.384390 -0.757279
vn 0.487570 0.331923 -0.807529
vn 0.487570 0.331923 -0.807529
vn 0.487570 0.331923 -0.807529
vn 0.485890 0.333925 -0.807716
vn 0.485890 0.333925 -0.807716
vn 0.485890 0.333925 -0.807716
vn -0.363563 0.747681 0.555694
vn -0.363563 0.747681 0.555694
vn -0.363563 0.747681 0.555694
vn -0.358900 0.748382 0.557777
vn -0.358900 0.748382 0.557777
vn -0.358900 0.748382 0.557777
vn 0.614233 0.378420 -0.692471
vn 0.614233 0.378420 -0.692471
vn 0.614233 0.378420 -0.692471
vn 0.515564 0.341937 -0.785667
vn 0.515564 0.341937 -0.785667
vn 0.515564 0.341937 -0.785667
vn 0.746586 0.474689 0.466133
vn 0.746586 0.474689 0.466133
vn 0.746586 0.474689 0.466133
vn 0.738961 0.457258 0.494825
vn 0.738961 0.457258 0.494825
vn 0.738961 0.457258 0.494825
vn 0.243729 0.885578 -0.395408
vn 0.243729 0.885578 -0.395408
vn 0.243729 0.885578 -0.395408
vn 0.243855 0.876163 -0.415780
vn 0.243855 0.876163 -0.415780
vn 0.243855 0.876163 -0.415780
vn 0.531990 0.739872 -0.411797
vn 0.531990 0.739872 -0.411797
vn 0.531990 0.739872 -0.411797
vn 0.350436 0.747243 -0.564644
vn 0.350436 0.747243 -0.564644
vn 0.350436 0.747243 -0.564644
vn 0.758721 0.226214 0.610876
vn 0.758721 0.226214 0.610876
vn 0.758721 0.226214 0.610876
vn 0.652193 0.274130 0.706752
vn 0.652193 0.274130 0.706752
vn 0.652193 0.274130 0.706752
vn 0.604061 0.343534 0.719093
vn 0.604061 0.343534 0.719093
vn 0.604061 0.343534 0.719093
vn -0.771636 0.436302 -0.462838
vn -0.771636 0.436302 -0.462838
vn -0.771636 0.436302 -0.462838
vn -0.808158 0.436233 -0.395704
vn -0.808158 0.436233 -0.395704
vn -0.808158 0.436233 -0.395704
vn -0.808971 0.381705 -0.447066
vn -0.808971 0.381705 -0.447066
vn -0.808971 0.381705 -0.447066
vn -0.803885 0.382249 -0.455691
vn -0.803885 0.382249 -0.455691
vn -0.803885 0.382249 -0.455691
vn 0.000000 1.000000 0.000000
vn 0.000000 1.000000 0.000000
vn 0.000000 1.000000 0.000000
vn 0.000000 1.000000 0.000000
vn 0.000000 1.000000 0.000000
vn 0.000000 1.000000 0.000000
vn 0.480220 0.440020 -0.758796
vn 0.480220 0.440020 -0.758796
vn 0.480220 0.440020 -0.758796
vn 0.493688 0.384601 -0.779971
vn 0.493688 0.384601 -0.779971
vn 0.493688 0.384601 -0.779971
vn 0.638937 0.160649 0.752297
vn 0.638937 0.160649 0.752297
vn 0.638937 0.160649 0.752297
vn 0.480264 0.440028 -0.758763
vn 0.480264 0.440028 -0.758763
vn 0.480264 0.440028 -0.758763
vn 0.480264 0.440028 -0.758764
vn 0.480264 0.440028 -0.758764
vn 0.480264 0.440028 -0.758764
vn 0.480264 0.440028 -0.758764
vn 0.480264 0.440028 -0.758764
vn 0.480264 0.440028 -0.758764
vn 0.480264 0.440028 -0.758763
vn 0.480264 0.440028 -0.758763
vn 0.480264 0.440028 -0.758763
vn -0.753138 0.440930 -0.488225
vn -0.753138 0.440930 -0.488225
vn -0.753138 0.440930 -0.488225
vn -0.758763 0.440028 -0.480265
vn -0.758763 0.440028 -0.480265
vn -0.758763 0.440028 -0.480265
vn -0.758764 0.440028 -0.480264
vn -0.758764 0.440028 -0.480264
vn -0.758764 0.440028 -0.480264
vn -0.758763 0.440028 -0.480264
vn -0.758763 0.440028 -0.480264
vn -0.758763 0.440028 -0.480264
vn -0.486284 0.416265 0.768278
vn -0.486284 0.416265 0.768278
vn -0.486284 0.416265 0.768278
vn 0.350211 0.506868 0.787678
vn 0.350211 0.506868 0.787678
vn 0.350211 0.506868 0.787678
vn -0.481095 0.436814 0.760093
vn -0.481095 0.436814 0.760093
vn -0.481095 0.436814 0.760093
vn -0.481103 0.436812 0.760089
vn -0.481103 0.436812 0.760089
vn -0.481103 0.436812 0.760089
vn -0.481103 0.436812 0.760089
vn -0.481103 0.436812 0.760089
vn -0.481103 0.436812 0.760089
vn -0.481104 0.436813 0.760088
vn -0.481104 0.436813 0.760088
vn -0.481104 0.436813 0.760088
vn -0.481103 0.436812 0.760089
vn -0.481103 0.436812 0.760089
vn -0.481103 0.436812 0.760089
vn -0.481103 0.436813 0.760088
vn -0.481103 0.436813 0.760088
vn -0.481103 0.436813 0.760088
vn 0.767407 0.418504 0.485737
vn 0.767407 0.418504 0.485737
vn 0.767407 0.418504 0.485737
vn 0.505672 0.497198 0.705046
vn 0.505672 0.497198 0.705046
vn 0.505672 0.497198 0.705046
vn 0.760089 0.436812 0.481103
vn 0.760089 0.436812 0.481103
vn 0.760089 0.436812 0.481103
vn 0.780954 0.381798 0.494309
vn 0.780954 0.381798 0.494309
vn 0.780954 0.381798 0.494309
vn 0.760089 0.436812 0.481103
vn 0.760089 0.436812 0.481103
vn 0.760089 0.436812 0.481103
vn 0.856011 0.414236 0.309279
vn 0.856011 0.414236 0.309279
vn 0.856011 0.414236 0.309279
vn 0.477205 0.403510 -0.780676
vn 0.477205 0.403510 -0.780676
vn 0.477205 0.403510 -0.780676
vn 0.509636 0.444995 -0.736377
vn 0.509636 0.444995 -0.736377
vn 0.509636 0.444995 -0.736377
vn 0.568530 0.220628 0.792526
vn 0.568530 0.220628 0.792526
vn 0.568530 0.220628 0.792526
vn 0.874460 0.315078 0.368844
vn 0.874460 0.315078 0.368844
vn 0.874460 0.315078 0.368844
vn 0.344623 0.749840 -0.564779
vn 0.344623 0.749840 -0.564779
vn 0.344623 0.749840 -0.564779
vn 0.191830 0.807960 -0.557137
vn 0.191830 0.807960 -0.557137
vn 0.191830 0.807960 -0.557137
vn -0.006704 0.605355 -0.795927
vn -0.006704 0.605355 -0.795927
vn -0.006704 0.605355 -0.795927
vn 0.124021 0.977563 -0.170266
vn 0.124021 0.977563 -0.170266
vn 0.124021 0.977563 -0.170266
vn 0.098059 0.984158 -0.147707
vn 0.098059 0.984158 -0.147707
vn 0.098059 0.984158 -0.147707
vn 0.752364 0.484195 0.446659
vn 0.752364 0.484195 0.446659
vn 0.752364 0.484195 0.446659
vn -0.492937 0.399299 0.773029
vn -0.492937 0.399299 0.773029
vn -0.492937 0.399299 0.773029
vn -0.909001 0.142099 0.391824
vn -0.909001 0.142099 0.391824
vn -0.909001 0.142099 0.391824
vn -0.702462 0.344637 0.622713
vn -0.702462 0.344637 0.622713
vn -0.702462 0.344637 0.622713
vn -0.488165 0.388266 0.781630
vn -0.488165 0.388266 0.781630
vn -0.488165 0.388266 0.781630
vn -0.492047 0.391780 0.777431
vn -0.492047 0.391780 0.777431
vn -0.492047 0.391780 0.777431
vn -0.535967 0.361505 0.762924
vn -0.535967 0.361505 0.762924
vn -0.535967 0.361505 0.762924
vn -0.175367 0.944695 0.277122
vn -0.175367 0.944695 0.277122
vn -0.175367 0.944695 0.277122
vn -0.175449 0.944655 0.277207
vn -0.175449 0.944655 0.277207
vn -0.175449 0.944655 0.277207
vn 0.913125 0.272757 0.302995
vn 0.913125 0.272757 0.302995
vn 0.913125 0.272757 0.302995
vn 0.924906 0.289671 0.246250
vn 0.924906 0.289671 0.246250
vn 0.924906 0.289671 0.246250
vn 0.983010 0.165431 0.079522
vn 0.983010 0.165431 0.079522
vn 0.983010 0.165431 0.079522
vn -0.533895 0.296729 -0.791775
vn -0.533895 0.296729 -0.791775
vn -0.533895 0.296729 -0.791775
vn -0.880519 0.334297 -0.336055
vn -0.880519 0.334297 -0.336055
vn -0.880519 0.334297 -0.336055
vn -0.899106 0.319649 -0.299055
vn -0.899106 0.319649 -0.299055
vn -0.899106 0.319649 -0.299055
s off
g polySurface10
usemtl lambert2SG
f 3/4/1 1/1/2 4/2/3
f 1/1/4 2/3/5 4/2/6
f 5/99/7 7/101/8 6/100/9
f 7/101/10 8/102/11 6/100/12
f 7/5/13 14/7/14 8/6/15
f 14/7/16 13/8/17 8/6/18
f 3/16/19 4/15/20 9/14/21
f 4/15/22 8/6/23 9/14/24
f 9/14/25 8/6/26 10/13/27
f 10/13/28 8/6/29 11/12/30
f 13/8/31 12/10/32 8/6/33
f 11/12/34 8/6/35 12/10/36
f 2/103/37 6/105/38 4/104/39
f 6/105/40 8/106/41 4/104/42
f 5/11/43 15/9/44 7/5/45
f 15/9/46 14/7/47 7/5/48
f 9/107/49 10/109/50 16/108/51
f 10/109/52 17/110/53 16/108/54
f 12/82/55 13/80/56 18/81/57
f 13/80/58 19/79/59 18/81/60
f 24/111/61 22/113/62 25/112/63
f 25/112/64 22/113/65 23/114/66
f 22/113/67 21/115/68 23/114/69
f 23/114/70 21/115/71 20/116/72
f 28/17/73 27/19/74 29/18/75
f 27/19/76 26/20/77 29/18/78
f 31/62/79 30/57/80 29/60/81
f 30/57/82 28/58/83 29/60/84
f 32/64/85 31/62/86 26/63/87
f 31/62/88 29/60/89 26/63/90
f 22/21/91 35/23/92 21/22/93
f 35/23/94 36/24/95 21/22/96
f 22/21/97 16/25/98 35/23/99
f 17/26/100 35/23/101 16/25/102
f 20/31/103 21/29/104 37/27/105
f 37/27/106 21/29/107 38/28/108
f 21/29/109 36/30/110 38/28/111
f 9/117/112 16/119/113 3/118/114
f 16/119/115 22/120/116 3/118/117
f 24/122/118 1/121/119 22/120/120
f 3/118/121 22/120/122 1/121/123
f 39/32/124 42/34/125 40/33/126
f 42/34/127 41/35/128 40/33/129
f 35/123/130 41/125/131 36/124/132
f 33/59/133 34/61/134 42/56/135
f 34/36/136 44/38/137 42/37/138
f 44/130/139 43/129/140 42/126/141
f 43/129/142 38/128/143 42/126/144
f 38/128/145 36/124/146 42/126/147
f 42/126/148 36/124/149 41/125/150
f 35/123/151 17/127/152 41/125/153
f 11/132/154 40/134/155 10/133/156
f 41/136/157 17/135/158 40/134/159
f 10/133/160 40/134/161 17/135/162
f 45/44/163 39/42/164 46/47/165
f 46/47/166 39/42/167 47/49/168
f 47/49/169 39/42/170 48/50/171
f 48/50/172 39/42/173 49/51/174
f 39/42/175 40/52/176 49/51/177
f 12/55/178 18/54/179 11/53/180
f 40/52/181 11/53/182 49/51/183
f 11/53/184 18/54/185 49/51/186
f 45/44/187 50/41/188 39/42/189
f 50/41/190 27/43/191 39/42/192
f 28/45/193 39/42/194 27/43/195
f 33/59/196 42/56/197 30/57/198
f 39/42/199 28/45/200 42/48/201
f 42/56/202 28/58/203 30/57/204
f 52/137/205 53/139/206 51/138/207
f 53/139/208 54/140/209 51/138/210
f 51/40/211 54/39/212 34/36/213
f 34/36/214 54/39/215 44/38/216
f 38/65/217 43/67/218 37/66/219
f 43/67/220 54/68/221 37/66/222
f 37/66/223 54/68/224 20/69/225
f 54/68/226 53/70/227 20/69/228
f 20/69/229 53/70/230 23/71/231
f 43/129/232 44/130/233 54/131/234
f 27/43/235 50/41/236 26/46/237
f 26/72/238 50/74/239 32/73/240
f 55/75/241 56/77/242 15/76/243
f 15/76/244 56/77/245 14/78/246
f 56/77/247 19/79/248 14/78/249
f 14/78/250 19/79/251 13/80/252
f 48/83/253 49/85/254 56/84/255
f 49/85/256 19/86/257 56/84/258
f 47/87/259 48/89/260 56/88/261
f 56/88/262 55/90/263 47/87/264
f 47/87/265 55/90/266 46/91/267
f 49/92/268 18/94/269 19/93/270
f 52/98/271 25/95/272 53/96/273
f 25/95/274 23/97/275 53/96/276
